<svg width="978" height="113" viewBox="0 0 978 113" fill="none" xmlns="http://www.w3.org/2000/svg">
<path d="M0.145185 2.80369H12.8828V98.2619H71.3871V109H0.145185V2.80369ZM139.83 82.3067L152.115 85.9467C149.385 99.7483 138.01 110.517 118.749 110.517C96.7569 110.517 81.2869 95.6533 81.2869 68.505C81.2869 47.12 89.6285 27.7066 116.777 27.7066C144.684 27.7066 151.205 47.2717 151.812 60.77C151.964 64.1067 151.66 70.6283 150.75 71.8417L95.5435 72.2967C96.7569 89.5867 106.919 98.99 118.749 98.99C131.944 98.99 137.859 90.345 139.83 82.3067ZM116.777 39.2333C102.975 39.2333 97.2119 47.4233 95.8469 60.77L138.92 60.4667C138.92 50.6083 131.792 39.2333 116.777 39.2333ZM208.136 48.6444C199.348 47.8051 194.954 43.3123 194.954 35.1662V2.80369H263.678V13.6159H208.136V48.6444ZM208.136 48.6444C208.827 48.7431 209.889 48.7925 211.32 48.7925H260.938V59.5306H211.32C209.889 59.5306 208.827 59.58 208.136 59.6787V48.6444ZM194.954 73.6753C194.954 69.1826 195.991 65.8253 198.064 63.6037C200.138 61.382 203.495 60.0737 208.136 59.6787V109H194.954V73.6753ZM276.611 109V1.31664H289.806V109H276.611ZM369.384 101.265C369.384 104.298 369.99 107.028 370.294 107.787V109H356.644C356.189 108.09 355.734 106.725 355.734 102.782C355.734 101.113 355.734 97.4733 358.16 94.2883L356.644 93.8333C353.155 105.967 340.415 110.668 331.315 110.668C315.239 110.668 303.257 100.81 303.257 86.25C303.257 69.7183 312.812 65.775 336.472 63.045C355.734 60.77 355.734 55.1583 355.734 55.1583V54.2483C355.734 49.6983 354.52 38.3233 336.017 38.3233C322.215 38.3233 315.39 45.9067 315.39 54.7033L301.74 58.3433C301.74 41.8116 313.722 26.9483 334.5 26.9483C364.682 26.9483 369.384 44.6933 369.384 57.585V101.265ZM355.885 84.7333V62.7417C355.885 65.775 355.885 72.4483 336.017 74.5717C320.699 76.24 316.907 78.2117 316.907 86.25C316.907 95.805 324.945 99.1417 331.467 99.1417C341.932 99.1417 355.885 95.5017 355.885 84.7333ZM383.995 0.406638H400.981V20.1233H383.995V0.406638ZM385.663 30.1333H399.313V109H385.663V30.1333ZM414.09 109V30.1333H427.436C427.74 31.9533 427.892 33.925 427.892 35.8966C427.892 39.6883 426.83 46.21 425.768 48.03L427.285 48.485C430.925 35.29 438.963 28.6166 449.277 28.6166C454.888 28.6166 458.073 29.9816 458.983 30.74V46.0583C456.253 43.7833 453.523 41.8116 447.76 41.8116C435.475 41.8116 427.285 51.5183 427.74 72.9033V109H414.09ZM504.665 15.3932C506.196 11.098 508.936 7.64201 512.885 5.02537C516.884 2.35935 521.871 1.02634 527.845 1.02634C539.447 1.02634 547 5.76593 550.506 15.2451C543.791 12.8259 536.089 11.6164 527.4 11.6164C518.168 11.6164 510.59 12.8753 504.665 15.3932ZM552.283 34.8699C552.481 32.2039 552.579 30.3278 552.579 29.2417C552.579 23.9096 551.888 19.2441 550.506 15.2451C555.542 17.1212 559.516 19.7378 562.429 23.095C565.342 26.4029 566.872 30.3278 567.02 34.8699H552.283ZM554.431 95.818C555.319 93.3495 555.764 90.6588 555.764 87.7459C555.764 83.2532 554.998 79.4763 553.468 76.4154C551.987 73.3544 549.765 70.7624 546.803 68.6395C543.89 66.5165 540.064 64.5417 535.324 62.715L514.811 54.8651C507.455 52.0016 501.826 48.8418 497.926 45.3859C494.026 41.9299 492.076 37.7088 492.076 32.7223C492.076 28.6739 493.162 25.1933 495.334 22.2804C497.506 19.3675 500.617 17.0718 504.665 15.3932C503.875 17.6643 503.48 20.0094 503.48 22.4285C503.48 26.2794 504.171 29.4885 505.554 32.0558C506.985 34.5737 509.133 36.746 511.997 38.5727C514.909 40.3995 518.884 42.3002 523.92 44.275L544.433 52.2731C551.691 55.186 557.294 58.6666 561.244 62.715C565.194 66.714 567.168 71.4783 567.168 77.0078C567.168 81.2043 566.082 84.9071 563.91 88.1162C561.787 91.2759 558.627 93.8432 554.431 95.818ZM506.516 96.5586C495.112 92.5102 489.335 84.9318 489.187 73.8234H503.925C503.727 75.3539 503.628 77.5756 503.628 80.4884C503.628 87.0054 504.591 92.3621 506.516 96.5586ZM530.437 110.851C524.71 110.851 519.822 109.642 515.773 107.223C511.725 104.754 508.639 101.199 506.516 96.5586C513.132 98.879 521.426 100.039 531.399 100.039C540.829 100.039 548.506 98.6322 554.431 95.818C552.851 100.36 550.012 104.014 545.914 106.778C541.816 109.494 536.657 110.851 530.437 110.851ZM612.561 111.275C597.546 111.275 593.603 102.782 593.603 91.5583V41.5083H580.559V30.1333H582.076C595.119 30.1333 599.214 15.27 599.214 9.65831H613.471C613.471 16.18 609.983 28.6166 597.849 28.6166V30.1333H626.818V41.5083H606.798V88.525C606.798 97.4733 608.011 99.9 612.561 99.9C615.139 99.9 617.718 99.7483 623.026 97.3217L624.998 107.787C621.964 109.758 616.959 111.275 612.561 111.275ZM665.422 112.033C648.435 112.033 639.335 102.63 639.335 75.785V30.1333H652.985V70.78C652.985 93.53 655.563 100.658 668.607 100.658C681.953 100.658 690.902 94.1367 690.902 73.055V30.1333H704.552L705.31 101.265C705.31 104.298 705.31 106.573 705.765 107.787V109H691.66C691.205 108.09 690.902 106.422 690.902 102.478C690.902 100.507 690.902 97.0183 693.177 93.985L691.66 93.53L689.992 98.6867C685.593 109 676.19 112.033 665.422 112.033ZM750.792 110.062C729.407 110.062 715.757 91.8617 715.757 69.415C715.757 46.9683 729.407 28.6166 750.792 28.6166C763.532 28.6166 770.054 33.925 775.969 43.6316V1.31664H789.619V101.265C789.619 104.298 789.771 106.573 790.226 107.787V109H776.121C775.666 108.09 775.362 105.36 775.362 102.782C775.362 99.445 775.514 97.3217 777.486 93.985L775.969 93.53C773.087 103.237 762.471 110.062 750.792 110.062ZM752.916 98.8383C767.324 98.8383 777.486 85.34 777.486 69.5667C777.486 53.7933 767.324 40.295 752.916 40.295C737.294 40.295 729.711 52.58 729.711 69.5667C729.711 86.5533 737.294 98.8383 752.916 98.8383ZM805.421 0.406638H822.407V20.1233H805.421V0.406638ZM807.089 30.1333H820.739V109H807.089V30.1333ZM869.07 110.517C847.988 110.517 831.456 95.1983 831.456 69.415C831.456 45.4516 847.988 28.6166 869.07 28.6166C889.696 28.6166 906.228 45.4516 906.228 69.415C906.228 95.1983 889.696 110.517 869.07 110.517ZM869.07 98.08C882.416 98.08 892.578 86.5533 892.578 69.415C892.578 53.3383 882.416 41.0533 869.07 41.0533C855.268 41.0533 845.106 53.1866 845.106 69.415C845.106 86.5533 855.268 98.08 869.07 98.08ZM945.65 27.8583C966.428 27.8583 977.5 41.3566 977.5 58.6467L963.85 56.675C963.85 46.0583 957.025 39.2333 945.65 39.2333C935.033 39.2333 927.601 42.57 927.601 49.5466C927.601 55.9167 931.241 59.2533 941.706 61.8317L946.56 63.045C962.636 66.9883 976.893 70.1733 976.893 87.615C976.893 102.933 962.788 110.82 945.65 110.82C927.753 110.82 913.951 100.203 913.951 79.7283L927.601 81.7C927.601 96.8667 938.825 99.445 945.65 99.445C955.811 99.445 963.243 95.35 963.243 87.615C963.243 79.88 955.205 78.3633 942.616 75.1783L939.431 74.42C913.951 67.595 913.951 56.3717 913.951 49.5466C913.951 37.7166 923.961 27.8583 945.65 27.8583Z" fill="#F1F1F1"/>
</svg>
